<svg id="eLU3uGVh6Qn1" xmlns="http://www.w3.org/2000/svg" xmlns:xlink="http://www.w3.org/1999/xlink" viewBox="0 0 300 300" shape-rendering="geometricPrecision" text-rendering="geometricPrecision" project-id="e66bd52569dc4fddabd755093beb8091" export-id="676c920980944fa4a51474028b841071" cached="false"><g transform="matrix(1.838119 0 0 1.838119-124.290822-125.71785)"><path d="M151.08316,90.31061c0,.0001-.00001.0002-.00001.00029v10.13993h.00001v63.10852h-15v-58.24874l15-15Zm-.00001,0v.00001l-.00001-.00001h.00001Z" transform="translate(20.87048 26.60023)" fill="#fbfaee" stroke-width="0"/><path d="M87.62513,170.16023l60.32046-60.32046h24.00805l-60.32046,60.32046h-24.00805Z" fill="#fbfaee" stroke-width="0"/><path d="M131.08316,148.39686v15h-85.65824l15-15h70.65824Z" transform="translate(22.193578 26.76337)" fill="#fbfaee" stroke-width="0"/><path d="M156.08316,98.23954v-15h30v0c13.16095,0,23.83,10.66905,23.83,23.83c0,6.31982-2.46014,12.06504-6.475,16.33023c4.01486,4.26519,6.475,10.01041,6.475,16.33023c0,13.16095-10.66905,23.83-23.83,23.83v-.00065h-30v-15h30v.00065c4.87667,0,8.83-3.95333,8.83-8.83s-3.95333-8.83-8.83-8.83h-30v-15h30v-.00046c4.87667,0,8.83-3.95333,8.83-8.83s-3.95333-8.83-8.83-8.83v0h-30Z" transform="translate(20.87048 26.60023)" fill="#fbfaee" stroke-width="0"/></g></svg>
